<svg xmlns="http://www.w3.org/2000/svg" xmlns:xlink="http://www.w3.org/1999/xlink" version="1.1" x="0px" y="0px" viewBox="0 0 65 81.25" enable-background="new 0 0 65 65" xml:space="preserve"><g><path d="M34.9,19.1c-0.2-0.2-0.6,0-0.6,0.3v7.9c0,0.3,0.4,0.5,0.6,0.3l4.7-4c0.2-0.2,0.2-0.4,0-0.6L34.9,19.1z"/><path d="M55.1,51.7c0.2-0.9,0.4-1.6,0.5-1.8c0.5-0.1,0.8-0.5,0.8-1c0-0.5-0.4-1-1-1H17.1c-4.6,0-8.4,3.6-8.6,8   c-0.1,2.3,0.8,4.4,2.3,6c1.6,1.6,3.7,2.5,5.9,2.5h38.7c0.6,0,1-0.4,1-1c0-0.5-0.3-0.9-0.8-1c-0.1-0.2-0.3-0.6-0.4-1.2H16.5v-2H55   c-0.1-0.5-0.1-1.1-0.1-1.8H15.7v-2h39.1c0-0.6,0-1.2,0.1-1.8H16.5v-2H55.1z"/><path d="M16.1,46V0.6c-4.3,0.5-7.6,4.1-7.6,8.5v41.2C10.3,47.9,13,46.3,16.1,46z"/><path d="M53.4,0.5H18.1V46h37.4c0.4,0,0.7,0.1,1,0.2V3.6C56.5,1.9,55.1,0.5,53.4,0.5z M33.6,4.9H39v5.4h-5.4V4.9z M27.9,41.6h-5.4   v-5.4h5.4V41.6z M27.9,10.3h-5.4V4.9h5.4V10.3z M39,41.6h-5.4v-5.4H39V41.6z M36.3,31.2c-4.4,0-7.9-3.5-7.9-7.9   c0-4.4,3.5-7.9,7.9-7.9c4.4,0,7.9,3.5,7.9,7.9C44.2,27.6,40.7,31.2,36.3,31.2z M50.2,41.6h-5.4v-5.4h5.4V41.6z M50.2,10.3h-5.4V4.9   h5.4V10.3z"/></g><text x="0" y="80" fill="#000000" font-size="5px" font-weight="bold" font-family="'Helvetica Neue', Helvetica, Arial-Unicode, Arial, Sans-serif">Created by Graphic Tigers</text><text x="0" y="85" fill="#000000" font-size="5px" font-weight="bold" font-family="'Helvetica Neue', Helvetica, Arial-Unicode, Arial, Sans-serif">from the Noun Project</text></svg>