<svg xmlns="http://www.w3.org/2000/svg" xmlns:xlink="http://www.w3.org/1999/xlink" version="1.1" enable-background="new 0 0 65 65" xml:space="preserve" width="65" height="81.25" style=""><rect id="backgroundrect" width="100%" height="100%" x="0" y="0" fill="none" stroke="none"/><g class="currentLayer" style=""><title>Layer 1</title><path d="M35.23013712968477,25.462454968894185 c-0.22715422120764975,-0.22715422120764975 -0.6814626636229495,0 -0.6814626636229495,0.34073133181147486 v8.972591737702164 c0,0.34073133181147486 0.45430844241529955,0.5678855530191248 0.6814626636229495,0.34073133181147486 l5.338124198379768,-4.543084424152994 c0.22715422120764975,-0.22715422120764975 0.22715422120764975,-0.45430844241529955 0,-0.6814626636229495 L35.23013712968477,25.462454968894185 z" id="svg_2" fill="#d50b0b" fill-opacity="1" class="selected" stroke="#d50b0b" stroke-opacity="1"/><path d="M58.1727134716574,62.48859302574109 c0.22715422120764975,-1.022193995434424 0.45430844241529955,-1.8172337696611978 0.5678855530191248,-2.044387990868847 c0.5678855530191248,-0.11357711060382486 0.908616884830599,-0.5678855530191248 0.908616884830599,-1.1357711060382485 c0,-0.5678855530191248 -0.45430844241529955,-1.1357711060382485 -1.1357711060382485,-1.1357711060382485 H15.013411442203953 c-5.224547087775942,0 -9.540477290721288,4.088775981737695 -9.767631511928936,9.086168848305988 c-0.11357711060382486,2.612273543887971 0.908616884830599,4.997392866568294 2.612273543887971,6.814626636229491 c1.8172337696611978,1.8172337696611978 4.20235309234152,2.8394277650956212 6.701049525625667,2.8394277650956212 h43.95434180368022 c0.6814626636229495,0 1.1357711060382485,-0.45430844241529955 1.1357711060382485,-1.1357711060382485 c0,-0.5678855530191248 -0.34073133181147486,-1.022193995434424 -0.908616884830599,-1.1357711060382485 c-0.11357711060382486,-0.22715422120764975 -0.34073133181147486,-0.6814626636229495 -0.45430844241529955,-1.3629253272458983 H14.331948778581001 v-2.271542212076497 H58.05913636105357 c-0.11357711060382486,-0.5678855530191248 -0.11357711060382486,-1.2493482166420735 -0.11357711060382486,-2.044387990868847 H13.423331893750401 v-2.271542212076497 h44.40865024609552 c0,-0.6814626636229495 0,-1.3629253272458983 0.11357711060382486,-2.044387990868847 H14.331948778581001 v-2.271542212076497 H58.1727134716574 z" id="svg_3" fill="#d50b0b" fill-opacity="1" class="selected" stroke="#d50b0b" stroke-opacity="1"/><path d="M13.877640336165705,56.01469772132307 V4.4506895071865875 c-4.883815755964468,0.5678855530191248 -8.631860405890688,4.656661534756818 -8.631860405890688,9.654054401325112 v46.79376956877584 C7.290167921143862,58.17266282279574 10.356749907447133,56.35542905313454 13.877640336165705,56.01469772132307 z" id="svg_4" fill="#d50b0b" fill-opacity="1" class="selected" stroke="#d50b0b" stroke-opacity="1"/><path d="M56.24190259139237,4.337112396582764 H16.1491825482422 V56.01469772132307 h42.47783936583049 c0.45430844241529955,0 0.7950397742267746,0.11357711060382486 1.1357711060382485,0.22715422120764975 V7.858002825301332 C59.76279302011094,5.927191945036311 58.1727134716574,4.337112396582764 56.24190259139237,4.337112396582764 zM33.75363469183506,9.334505263151057 H39.88679866444159 v6.133163972606543 h-6.133163972606543 V9.334505263151057 zM27.279739387417035,51.01730485475478 h-6.133163972606543 v-6.133163972606543 h6.133163972606543 V51.01730485475478 zM27.279739387417035,15.467669235757599 h-6.133163972606543 V9.334505263151057 h6.133163972606543 V15.467669235757599 zM39.88679866444159,51.01730485475478 h-6.133163972606543 v-6.133163972606543 H39.88679866444159 V51.01730485475478 zM36.82021667813832,39.205285351956995 c-4.997392866568294,0 -8.972591737702164,-3.9751988711338697 -8.972591737702164,-8.972591737702164 c0,-4.997392866568294 3.9751988711338697,-8.972591737702164 8.972591737702164,-8.972591737702164 c4.997392866568294,0 8.972591737702164,3.9751988711338697 8.972591737702164,8.972591737702164 C45.79280841584049,35.1165093702193 41.81760954470661,39.205285351956995 36.82021667813832,39.205285351956995 zM52.60743505206998,51.01730485475478 h-6.133163972606543 v-6.133163972606543 h6.133163972606543 V51.01730485475478 zM52.60743505206998,15.467669235757599 h-6.133163972606543 V9.334505263151057 h6.133163972606543 V15.467669235757599 z" id="svg_5" fill="#d50b0b" fill-opacity="1" class="selected" stroke="#d50b0b" stroke-opacity="1"/></g></svg>